<svg xmlns="http://www.w3.org/2000/svg" width="256" height="256" style="overflow: visible;" data-svgdocument="" id="_Vu_n21r4i8YQsOUFY7Pak" class="fl-svgdocument" x="0" y="0" xmlns:xlink="http://www.w3.org/1999/xlink" overflow="hidden">
    <defs id="_oQITUVK8J_vnvryxEsBQX" transform="matrix(0.7966864311416202, 0, 0, 0.7966864311416202, -30.775024500922047, 161.43264886680836)" data-uid="o_en7il54d5_4"></defs><path id="_aNvBQAGdBTcRelv892A_s" d="m 12,965.36303 c -2.7526942,0 -5,2.24729 -5,4.99994 l 0,49.99943 c 0,2.7527 2.2473058,4.9999 5,4.9999 l 30,0 0,11.9999 -5,0 c -0.52302,0 -0.998894,0.4764 -0.998894,1 0,0.5236 0.475874,1 0.998894,1 8.65625,0 17.3125,0 25.96875,0 0.578108,0.024 1.104502,-0.5504 1.03125,-1.125 -0.06117,-0.4918 -0.536655,-0.8952 -1.03125,-0.875 l -4.96875,0 0,-11.9999 30,0 c 2.752694,0 5,-2.2472 5,-4.9999 l 0,-49.99943 c 0,-2.75265 -2.247306,-4.99994 -5,-4.99994 z m 0,1.99997 76,0 c 1.679306,0 3,1.32074 3,2.99997 l 0,49.99943 c 0,1.6793 -1.320694,3 -3,3 l -76,0 c -1.679306,0 -3,-1.3207 -3,-3 l 0,-49.99943 c 0,-1.67923 1.320694,-2.99997 3,-2.99997 z m 43.875,11.96862 c -0.363198,0.0475 -0.689655,0.31117 -0.8125,0.65624 l -12,29.99964 c -0.188184,0.4909 0.08722,1.1087 0.578096,1.2969 0.490874,0.1882 1.10872,-0.087 1.296904,-0.5781 l 12,-29.9997 c 0.26994,-0.64786 -0.367491,-1.47276 -1.0625,-1.37498 z m -19.90625,4.99994 c -0.165992,0.012 -0.328759,0.0663 -0.46875,0.15625 l -18,9.99988 c -0.621399,0.34395 -0.621399,1.40603 0,1.74998 l 18,9.99993 c 0.458154,0.2618 1.11321,0.083 1.37501,-0.375 0.261799,-0.4582 0.08314,-1.1132 -0.37501,-1.375 L 20.0625,995.36268 36.5,986.23779 c 0.434082,-0.19274 0.685028,-0.725 0.557524,-1.18251 -0.127505,-0.45751 -0.617571,-0.78327 -1.088774,-0.72372 z m 27.9375,0 c -0.448043,0.007 -0.868091,0.35324 -0.961492,0.7915 -0.0934,0.43826 0.149169,0.92525 0.555242,1.11473 l 16.4375,9.12489 -16.4375,9.12492 c -0.458154,0.2618 -0.636809,0.9168 -0.37501,1.375 0.2618,0.4581 0.916856,0.6368 1.37501,0.375 l 18,-9.99993 c 0.621399,-0.34395 0.621399,-1.40603 0,-1.74998 l -18,-9.99988 c -0.175203,-0.11213 -0.386047,-0.16761 -0.59375,-0.15625 z M 44,1025.3623 l 12,0 0,11.9999 -12,0 z" fill="#292f38" fill-opacity="1" stroke="none" marker="none" visibility="visible" display="inline" overflow="visible" transform="matrix(1.1824133218645485, 0, 0, 1.1824133218645485, 199.24760055728336, -956.7970405203712)" direction="ltr" baseline-shift="baseline" color="rgb(0, 0, 0)" stroke-width="1" data-uid="o_en7il54d5_5" style="text-indent: 0px; text-transform: none;">
    </path>
    <path text="R B" text-anchor="middle" font-size="100" letter-spacing="0" side="left" offset="0.5" dx="0" dy="0" space="preserve" href="" font-family="Flamenco" font-scale="contain" transform="matrix(0.5611763211254511, 0, 0, 0.5611763211254511, 255.85970591971864, 327.32444768311586)" x="0" y="0" fill="#292f38" data-fl-textpath="" id="_fOU6kpe3PPhIlda_Y4qMd" data-uid="o_en7il54d5_6" d="M-37.70000000000001-56.1L-57.70000000000001-56.1L-57.70000000000001-27.9L-37.70000000000001-27.9Q-21.20000000000001-27.9 -21.20000000000001-42.1L-21.20000000000001-42.1Q-21.20000000000001-49.6 -25.35000000000001-52.85Q-29.500000000000014-56.1 -37.70000000000001-56.1L-37.70000000000001-56.1ZM-37.70000000000001-23.3L-57.70000000000001-23.3L-57.70000000000001-1.3Q-57.70000000000001-0.3 -58.500000000000014 0.35Q-59.30000000000001 1 -60.40000000000001 1Q-61.500000000000014 1 -62.30000000000001 0.35Q-63.10000000000001-0.3 -63.10000000000001-1.3L-63.10000000000001-1.3L-63.10000000000001-56.1L-69.10000000000001-56.1Q-70.10000000000001-56.1 -70.75000000000001-56.75Q-71.4-57.4 -71.4-58.4Q-71.4-59.4 -70.75000000000001-60.1Q-70.10000000000001-60.8 -69.10000000000001-60.8L-69.10000000000001-60.8L-37.70000000000001-60.8Q-15.800000000000011-60.8 -15.800000000000011-42.1L-15.800000000000011-42.1Q-15.800000000000011-28.6 -27.70000000000001-24.7L-27.70000000000001-24.7L-14.800000000000011-2.4Q-14.600000000000009-2 -14.600000000000009-1.5L-14.600000000000009-1.5Q-14.600000000000009-0.1 -15.750000000000014 0.5Q-16.900000000000013 1.1 -17.80000000000001 1.1Q-18.70000000000001 1.1 -19.400000000000013 0L-19.400000000000013 0L-33.10000000000001-23.5Q-35.70000000000001-23.3 -37.70000000000001-23.3L-37.70000000000001-23.3ZM 16.899999999999995-60.8L 16.899999999999995-60.8L 44.699999999999996-60.8Q 55.199999999999996-60.8  60.24999999999999-57.05Q 65.3-53.3  65.3-44.75Q 65.3-36.2  58.39999999999999-32.6L 58.39999999999999-32.6Q 68.8-28.9  68.8-17.2L 68.8-17.2Q 68.8 0  46.599999999999994 0L 46.599999999999994 0L 24.999999999999993 0Q 23.799999999999994 0  22.999999999999993-0.65Q 22.199999999999996-1.3  22.199999999999996-2.3L 22.199999999999996-2.3L 22.199999999999996-56.1L 16.899999999999995-56.1Q 15.899999999999995-56.1  15.249999999999995-56.75Q 14.599999999999994-57.4  14.599999999999994-58.4Q 14.599999999999994-59.4  15.249999999999995-60.1Q 15.899999999999995-60.8  16.899999999999995-60.8ZM 48.199999999999996-29.7L 27.599999999999994-29.7L 27.599999999999994-4.7L 46.599999999999994-4.7Q 55.099999999999994-4.7  59.199999999999996-7.7Q 63.3-10.7  63.3-17.2L 63.3-17.2Q 63.3-29.7  48.199999999999996-29.7L 48.199999999999996-29.7ZM 44.699999999999996-56.1L 27.599999999999994-56.1L 27.599999999999994-34.4L 46.99999999999999-34.4Q 52.89999999999999-34.4  56.39999999999999-37.2Q 59.89999999999999-40  59.89999999999999-45.45Q 59.89999999999999-50.9  56.199999999999996-53.5Q 52.49999999999999-56.1  44.699999999999996-56.1L 44.699999999999996-56.1Z">
    </path>
</svg>